<svg id="Layer_1" data-name="Layer 1" xmlns="http://www.w3.org/2000/svg" xmlns:xlink="http://www.w3.org/1999/xlink" viewBox="0 0 5095.24 2559.55"><defs><style>.cls-1,.cls-15{fill:#da9100;}.cls-2{fill:url(#linear-gradient);}.cls-3{fill:url(#linear-gradient-2);}.cls-4{fill:url(#linear-gradient-3);}.cls-5{fill:url(#linear-gradient-4);}.cls-6{fill:url(#linear-gradient-5);}.cls-7{fill:url(#linear-gradient-6);}.cls-8{fill:url(#linear-gradient-7);}.cls-9{fill:url(#linear-gradient-8);}.cls-10{fill:url(#linear-gradient-9);}.cls-11{fill:url(#linear-gradient-10);}.cls-12{fill:url(#linear-gradient-11);}.cls-13{fill:url(#linear-gradient-12);}.cls-14{fill:#424242;stroke:#424242;}.cls-14,.cls-15{stroke-miterlimit:10;stroke-width:35px;}.cls-15{stroke:#da9100;}.cls-16{fill:url(#linear-gradient-13);}.cls-17{fill:url(#linear-gradient-14);}</style><linearGradient id="linear-gradient" x1="11552.44" y1="-7278.4" x2="11683.98" y2="-7146.86" gradientTransform="matrix(0.61, 0.71, -0.61, 0.71, -10312.07, -2511.4)" gradientUnits="userSpaceOnUse"><stop offset="0" stop-color="#da9100"/><stop offset="0.1" stop-color="#d48d00"/><stop offset="0.24" stop-color="#c48200" stop-opacity="0.99"/><stop offset="0.4" stop-color="#a87000" stop-opacity="0.98"/><stop offset="0.57" stop-color="#825700" stop-opacity="0.96"/><stop offset="0.75" stop-color="#513600" stop-opacity="0.94"/><stop offset="0.93" stop-color="#160f00" stop-opacity="0.91"/><stop offset="1" stop-opacity="0.9"/></linearGradient><linearGradient id="linear-gradient-2" x1="14684.21" y1="-10354.05" x2="14815.76" y2="-10222.5" gradientTransform="matrix(0.61, 0.71, -0.61, 0.71, -14390.15, -2279.93)" xlink:href="#linear-gradient"/><linearGradient id="linear-gradient-3" x1="14005.89" y1="-10232.28" x2="14137.43" y2="-10100.73" gradientTransform="matrix(0.65, 0.71, -0.65, 0.71, -14774.36, -1327.25)" xlink:href="#linear-gradient"/><linearGradient id="linear-gradient-4" x1="14027.34" y1="-10794.91" x2="14158.88" y2="-10663.37" gradientTransform="matrix(0.65, 0.71, -0.65, 0.71, -15796.76, -950.24)" xlink:href="#linear-gradient"/><linearGradient id="linear-gradient-5" x1="12125.54" y1="-6765.77" x2="12257.08" y2="-6634.22" gradientTransform="matrix(0.63, 0.71, -0.63, 0.71, -11127.77, -2737.37)" xlink:href="#linear-gradient"/><linearGradient id="linear-gradient-6" x1="12849.03" y1="-7571.72" x2="13031.02" y2="-7389.73" gradientTransform="matrix(0.49, 0.45, -0.49, 0.45, -8763.47, -760.96)" xlink:href="#linear-gradient"/><linearGradient id="linear-gradient-7" x1="11874.16" y1="-9533.1" x2="12005.7" y2="-9401.56" gradientTransform="matrix(0.63, 0.68, -0.63, 0.68, -12787.77, -245.92)" xlink:href="#linear-gradient"/><linearGradient id="linear-gradient-8" x1="11893.87" y1="-10134.58" x2="12025.41" y2="-10003.04" gradientTransform="matrix(0.63, 0.68, -0.63, 0.68, -13247.8, -406.32)" xlink:href="#linear-gradient"/><linearGradient id="linear-gradient-9" x1="12474.45" y1="-10148.73" x2="12605.99" y2="-10017.19" gradientTransform="matrix(0.59, 0.68, -0.59, 0.68, -12168.4, -789.66)" xlink:href="#linear-gradient"/><linearGradient id="linear-gradient-10" x1="15266.71" y1="-7575.62" x2="15398.26" y2="-7444.07" gradientTransform="matrix(0.65, 0.68, -0.65, 0.68, -13918.79, -4147.28)" xlink:href="#linear-gradient"/><linearGradient id="linear-gradient-11" x1="15276.77" y1="-8175.24" x2="15408.31" y2="-8043.69" gradientTransform="matrix(0.65, 0.68, -0.65, 0.68, -14231.65, -3187.52)" xlink:href="#linear-gradient"/><linearGradient id="linear-gradient-12" x1="14017.62" y1="-10810.72" x2="14149.17" y2="-10679.18" gradientTransform="matrix(0.68, 0.7, -0.68, 0.7, -16015.51, -352.32)" xlink:href="#linear-gradient"/><linearGradient id="linear-gradient-13" x1="12269.47" y1="-7476.18" x2="12451.46" y2="-7294.19" gradientTransform="matrix(0.49, 0.45, -0.49, 0.45, -8442.16, -1119.67)" xlink:href="#linear-gradient"/><linearGradient id="linear-gradient-14" x1="12442.19" y1="-7573.49" x2="12624.18" y2="-7391.5" gradientTransform="matrix(0.49, 0.45, -0.49, 0.45, -8574.39, -846.97)" xlink:href="#linear-gradient"/></defs><polygon class="cls-1" points="709.53 1004.41 685.3 1028.64 685.3 1028.64 570.55 1143.4 681.86 1254.7 933.27 1003.29 933.27 1003.29 957.5 979.07 957.5 979.07 1071.28 865.28 959.98 753.97 709.53 1004.41 709.53 1004.41"/><polygon class="cls-1" points="1231.7 977.24 1337.24 871.71 1217.24 751.72 1201.04 735.52 1201.04 735.52 934.27 468.75 934.27 468.75 931.21 465.68 1079.75 317.15 1079.75 317.15 1103.98 292.92 1128.21 317.15 1128.2 317.15 1264.64 453.58 1116.11 602.12 1225.27 711.29 1486.79 449.77 1100.82 63.79 709.53 455.07 1231.7 977.24"/><polygon class="cls-1" points="714.5 2108.25 980.18 2373.93 1106.32 2495.76 1487.38 2114.7 961.52 1588.85 846.3 1704.06 974.6 1832.36 982.49 1840.26 982.49 1840.26 1260.38 2118.14 1260.38 2118.14 1263.64 2121.4 1127.36 2257.67 1127.36 2257.67 1103.13 2281.9 1078.9 2257.67 1078.9 2257.67 943.47 2122.24 1079.75 1985.97 958.26 1864.49 714.5 2108.25"/><polygon class="cls-1" points="575.06 1419.76 577.46 1422.16 577.46 1422.16 689.25 1533.95 800.95 1422.26 534.2 1155.51 522.09 1143.4 522.09 1143.4 407.53 1028.84 383.3 1004.61 522.29 865.62 522.29 865.62 546.52 841.39 570.75 865.62 570.75 865.62 685.3 980.18 797.73 867.76 547.29 617.32 159.95 1004.65 575.06 1419.76"/><polygon class="cls-1" points="822.07 1679.83 822.07 1679.84 937.29 1564.62 937.29 1564.62 955.43 1546.47 1076.23 1425.68 961.11 1310.55 849.4 1422.26 849.41 1422.26 825.18 1446.48 825.17 1446.48 575.33 1696.33 575.33 1696.33 563.21 1708.45 552.91 1718.75 552.91 1718.75 551.1 1720.56 390.85 1560.31 529 1422.16 412.53 1305.69 155.45 1562.78 547.29 1954.62 797.84 1704.06 797.84 1704.06 822.07 1679.83"/><rect class="cls-2" x="1152.98" y="513.11" width="153.87" height="168.28" transform="translate(782.55 -694.75) rotate(45)"/><rect class="cls-3" x="879.61" y="784.27" width="153.87" height="168.28" transform="translate(1018.86 2158.85) rotate(-135)"/><rect class="cls-4" x="877.65" y="1343.41" width="162.96" height="168.28" transform="translate(627.9 3115.18) rotate(-135)"/><rect class="cls-5" x="330.3" y="1337.74" width="163.94" height="168.28" transform="translate(-301.63 2718.81) rotate(-135)"/><rect class="cls-6" x="607.45" y="1054.87" width="156.99" height="168.28" transform="translate(1006.31 -151.43) rotate(45)"/><rect class="cls-7" x="1151.69" y="1633.38" width="170.09" height="149.26" transform="translate(1569.97 -374.24) rotate(45)"/><rect class="cls-8" x="608.99" y="1341.27" width="158.03" height="161.13" transform="translate(-803.88 902.94) rotate(-45)"/><rect class="cls-9" x="605.86" y="787" width="158.79" height="161.13" transform="translate(-412.75 738.65) rotate(-45)"/><rect class="cls-10" x="1153.11" y="787.15" width="148.65" height="161.13" transform="translate(-254.06 1122.08) rotate(-45)"/><rect class="cls-11" x="875.29" y="1062.11" width="163.49" height="161.13" transform="translate(2441.75 1273.93) rotate(135)"/><rect class="cls-12" x="879.62" y="1622.7" width="162.63" height="161.13" transform="translate(2844.82 2228.17) rotate(135)"/><rect class="cls-13" x="874.92" y="1900.1" width="171.65" height="166.98" transform="translate(237.49 4065.55) rotate(-135)"/><path class="cls-14" d="M1462.9,1591.65h125.85v-10.07c-24.12-7-31.11-24.86-31.11-88.58V1300.44h92.42c88.51,0,110.29,18.63,120.36,53.57h9.32V1236h-9.32c-10.07,34.19-31.85,52.82-120.36,52.07h-92.42V1060.46h137.5c72.95,0,105.56,19.46,132,71.45l8.49-2.33-7-81.52H1462.9v10.07c23.29,7,31.11,24.87,31.11,88.51V1493c0,63.72-7.82,81.6-31.11,88.58Z"/><path class="cls-14" d="M1934.89,1592.78h382.88l6.16-103.31-8.49-1.5c-28,72.2-75.36,93.16-149.89,93.16h-101c-22.54,0-34.93-12.39-34.93-34.93V1307.8H2129c88.5,0,111,17.81,120.36,52.82h9.32V1243.33h-9.32c-9.32,34.94-31.86,52.82-120.36,52.82h-99.4V1060.84h114.2c79.19,0,125,23.29,152.14,91.66l8.57-2.33-8.57-101H1934.89v10.07c23.29,7,31.11,24.87,31.11,88.5v346.37c0,63.71-7.82,81.59-31.11,88.58Z"/><path class="cls-14" d="M2624.76,1591.89c91.59,0,181.67-59,181.67-156.05,0-87.76-80.76-121.94-166.94-156.13-66-27.12-146-56.65-146-129.68,0-66,53.57-102.48,116.46-102.48,88.58,0,142.9,48.16,171.68,115.7l7.74-2.33-3.08-90.08c-30.28-16.31-80.77-35.76-151.47-35.76-114.13,0-189.49,57.47-189.49,148.38,0,82.27,58.23,114.88,149.89,151.4C2660.45,1361.3,2756,1397,2756,1474.68c0,62.89-53.65,103.23-115.78,103.23-107.89,0-166.95-69.12-197.23-150.64l-8.56,1.58,3.91,108C2474.87,1563.19,2543.17,1591.89,2624.76,1591.89Z"/><path class="cls-14" d="M3047.42,1595.33H3174v-10.06c-24.12-7-31.1-24.87-31.1-88.59V1064.14h36.51c69.88,0,100.15,18.63,126.6,74.53l8.49-1.5-4.66-85.43H2909.93l-4.66,85.43,8.57,1.5c26.37-55.9,56.72-74.53,126.59-74.53h38v432.54c0,63.72-7,81.6-31,88.59Z"/><path class="cls-14" d="M3348.16,1595.33h87.76v-10.06c-26.37-5.49-29.53-31.11-9.32-81.6l45.83-113.37h219l47.33,114.2c24.87,58.23,31.11,73.78,7,80.77v10.06h120.36v-10.06c-16.3-7-34.93-22.54-59-80.77l-191.06-459L3557.86,1072l7,16.3c6.23,12.4,7,22.46,1.58,36.44l-153,379c-24.11,59.06-43.5,74.61-65.29,81.6Zm128.93-216.68L3580.4,1123.2l106.39,255.45Z"/><path class="cls-14" d="M3985.71,1595.33H4346.8l5.49-87.75-8.57-1.58c-27.2,58.3-61.38,76.94-135.92,76.94h-92.41c-22.54,0-34.94-12.48-34.94-34.94V1150.32c0-63.64,7-81.52,31.11-88.51v-10.07H3985.71v10.07c23.29,7,31.1,24.87,31.1,88.51v346.36c0,63.72-7.81,81.6-31.1,88.59Z"/><path class="cls-15" d="M4777.59,1596.46H4898v-10.07c-17.13-7-35-20.21-67.62-74.6l-132-218.94,104.05-157.71c34.94-52.74,54.4-65.21,76.12-72.2v-10.07h-89.34v10.07c31.11,5.48,28.78,26.45-1.5,72.2l-97.07,146.06-86.18-143.73c-33.44-54.32-44.33-67.54-20.21-74.53v-10.07H4463.9v10.07c17.06,7,34.94,20.21,67.55,74.53l114.13,188.74-125,187.9c-34.93,52.82-54.32,65.3-75.28,72.28v10.07h88.51v-10.07c-31-5.48-28.7-26.44,1.58-72.28l117.2-176.26,105.64,173.94c32.61,54.39,43.5,67.62,19.39,74.6Z"/><rect class="cls-16" x="1142.4" y="1055.25" width="170.09" height="149.26" transform="translate(2894.32 1060.89) rotate(135)"/><rect class="cls-17" x="1142.4" y="1362.13" width="170.09" height="149.26" transform="translate(1375.45 -447.11) rotate(45)"/></svg>