<svg id="Layer_1" data-name="Layer 1" xmlns="http://www.w3.org/2000/svg" xmlns:xlink="http://www.w3.org/1999/xlink" viewBox="0 0 1667.45 2621.46"><defs><style>.cls-1{fill:#da9100;}.cls-2{fill:url(#linear-gradient);}.cls-3{fill:url(#linear-gradient-2);}.cls-4{fill:url(#linear-gradient-3);}.cls-5{fill:url(#linear-gradient-4);}.cls-6{fill:url(#linear-gradient-5);}.cls-7{fill:url(#linear-gradient-6);}.cls-8{fill:url(#linear-gradient-7);}.cls-9{fill:url(#linear-gradient-8);}.cls-10{fill:url(#linear-gradient-9);}.cls-11{fill:url(#linear-gradient-10);}.cls-12{fill:url(#linear-gradient-11);}.cls-13{fill:url(#linear-gradient-12);}.cls-14{fill:url(#linear-gradient-13);}.cls-15{fill:url(#linear-gradient-14);}</style><linearGradient id="linear-gradient" x1="7494.72" y1="-14091.01" x2="7626.26" y2="-13959.47" gradientTransform="matrix(0.61, 0.71, -0.61, 0.71, -11988.31, 5206.04)" gradientUnits="userSpaceOnUse"><stop offset="0" stop-color="#da9100"/><stop offset="0.1" stop-color="#d48d00"/><stop offset="0.24" stop-color="#c48200" stop-opacity="0.99"/><stop offset="0.4" stop-color="#a87000" stop-opacity="0.98"/><stop offset="0.57" stop-color="#825700" stop-opacity="0.96"/><stop offset="0.75" stop-color="#513600" stop-opacity="0.94"/><stop offset="0.93" stop-color="#160f00" stop-opacity="0.91"/><stop offset="1" stop-opacity="0.9"/></linearGradient><linearGradient id="linear-gradient-2" x1="7852.96" y1="-5276.56" x2="7984.51" y2="-5145.02" gradientTransform="matrix(0.61, 0.71, -0.61, 0.71, -7078.62, -1008.87)" xlink:href="#linear-gradient"/><linearGradient id="linear-gradient-3" x1="7379.02" y1="-5359.18" x2="7510.57" y2="-5227.63" gradientTransform="matrix(0.65, 0.71, -0.65, 0.71, -7297.18, -56.19)" xlink:href="#linear-gradient"/><linearGradient id="linear-gradient-4" x1="7421.06" y1="-5942.4" x2="7552.6" y2="-5810.86" gradientTransform="matrix(0.65, 0.71, -0.65, 0.71, -8301.81, 320.81)" xlink:href="#linear-gradient"/><linearGradient id="linear-gradient-5" x1="7995" y1="-13505.56" x2="8126.55" y2="-13374.02" gradientTransform="matrix(0.63, 0.71, -0.63, 0.71, -12747.15, 4980.07)" xlink:href="#linear-gradient"/><linearGradient id="linear-gradient-6" x1="8437.75" y1="-16582.75" x2="8619.74" y2="-16400.76" gradientTransform="matrix(0.49, 0.45, -0.49, 0.45, -11003.69, 5354.54)" xlink:href="#linear-gradient"/><linearGradient id="linear-gradient-7" x1="12308.59" y1="-9642.03" x2="12440.13" y2="-9510.48" gradientTransform="matrix(0.63, 0.68, -0.63, 0.68, -13117.49, -435.35)" xlink:href="#linear-gradient"/><linearGradient id="linear-gradient-8" x1="12316.13" y1="-10231.33" x2="12447.68" y2="-10099.79" gradientTransform="matrix(0.63, 0.68, -0.63, 0.68, -13563.76, -595.75)" xlink:href="#linear-gradient"/><linearGradient id="linear-gradient-9" x1="13070.44" y1="-10419.21" x2="13201.98" y2="-10287.67" gradientTransform="matrix(0.59, 0.68, -0.59, 0.68, -12669.15, -979.09)" xlink:href="#linear-gradient"/><linearGradient id="linear-gradient-10" x1="4028.79" y1="-9287.3" x2="4160.34" y2="-9155.76" gradientTransform="matrix(0.65, 0.68, -0.65, 0.68, -7702.62, 4651.07)" xlink:href="#linear-gradient"/><linearGradient id="linear-gradient-11" x1="4025.77" y1="-9873.84" x2="4157.31" y2="-9742.3" gradientTransform="matrix(0.65, 0.68, -0.65, 0.68, -8031.14, 5610.82)" xlink:href="#linear-gradient"/><linearGradient id="linear-gradient-12" x1="7583.77" y1="-6095.2" x2="7715.31" y2="-5963.65" gradientTransform="matrix(0.68, 0.7, -0.68, 0.7, -8379.86, 884.3)" xlink:href="#linear-gradient"/><linearGradient id="linear-gradient-13" x1="-1422.63" y1="-10009.5" x2="-1240.64" y2="-9827.51" gradientTransform="matrix(0.49, 0.45, -0.49, 0.45, -2965.3, 6266.52)" xlink:href="#linear-gradient"/><linearGradient id="linear-gradient-14" x1="8030.92" y1="-16584.52" x2="8212.91" y2="-16402.53" gradientTransform="matrix(0.49, 0.45, -0.49, 0.45, -10814.61, 5268.52)" xlink:href="#linear-gradient"/></defs><polygon class="cls-1" points="721.85 1035.37 697.62 1059.6 697.62 1059.6 582.86 1174.35 694.17 1285.66 945.58 1034.25 945.58 1034.25 969.81 1010.02 969.81 1010.02 1083.6 896.23 972.29 784.92 721.85 1035.37 721.85 1035.37"/><polygon class="cls-1" points="1244.02 1008.19 1349.55 902.66 1229.56 782.67 1213.36 766.47 1213.36 766.47 946.59 499.7 946.59 499.7 943.52 496.64 1092.06 348.1 1092.06 348.1 1116.29 323.87 1140.52 348.1 1140.52 348.1 1276.96 484.54 1128.42 633.07 1237.59 742.24 1499.11 480.72 1113.13 94.75 721.85 486.03 1244.02 1008.19"/><polygon class="cls-1" points="726.81 2139.21 992.49 2404.89 1118.64 2526.71 1499.69 2145.66 973.83 1619.8 858.62 1735.02 986.91 1863.31 994.81 1871.21 994.81 1871.21 1272.69 2149.1 1272.69 2149.1 1275.95 2152.35 1139.67 2288.63 1139.68 2288.63 1115.45 2312.86 1091.22 2288.63 1091.22 2288.63 955.78 2153.2 1092.06 2016.92 970.58 1895.44 726.81 2139.21"/><polygon class="cls-1" points="587.38 1450.71 589.77 1453.11 589.77 1453.11 701.57 1564.9 813.26 1453.21 546.52 1186.47 534.4 1174.35 534.4 1174.35 419.85 1059.79 395.62 1035.56 534.6 896.58 534.6 896.58 558.83 872.35 583.06 896.58 583.06 896.58 697.62 1011.14 810.04 898.71 559.6 648.27 172.27 1035.61 587.38 1450.71"/><polygon class="cls-1" points="834.39 1710.79 834.39 1710.79 949.6 1595.57 949.6 1595.57 967.75 1577.43 1088.55 1456.63 973.42 1341.51 861.72 1453.21 861.72 1453.21 837.49 1477.44 837.49 1477.44 587.64 1727.29 587.64 1727.29 575.53 1739.4 565.22 1749.71 565.22 1749.71 563.41 1751.52 403.16 1591.27 541.32 1453.11 424.85 1336.65 167.76 1593.73 559.6 1985.57 810.16 1735.02 810.16 1735.02 834.39 1710.79"/><rect class="cls-2" x="1165.29" y="544.06" width="153.87" height="168.28" transform="translate(808.05 -694.39) rotate(45)"/><rect class="cls-3" x="891.92" y="815.23" width="153.87" height="168.28" transform="translate(1018 2220.4) rotate(-135)"/><rect class="cls-4" x="889.96" y="1374.36" width="162.96" height="168.28" transform="translate(627.04 3176.73) rotate(-135)"/><rect class="cls-5" x="342.62" y="1368.69" width="163.94" height="168.28" transform="translate(-302.5 2780.36) rotate(-135)"/><rect class="cls-6" x="619.76" y="1085.83" width="156.99" height="168.28" transform="translate(1031.81 -151.07) rotate(45)"/><rect class="cls-7" x="1164" y="1664.33" width="170.09" height="149.26" transform="translate(1595.47 -373.88) rotate(45)"/><rect class="cls-8" x="621.31" y="1372.22" width="158.03" height="161.13" transform="translate(-822.16 920.72) rotate(-45)"/><rect class="cls-9" x="618.18" y="817.95" width="158.79" height="161.13" transform="translate(-431.03 756.43) rotate(-45)"/><rect class="cls-10" x="1165.43" y="818.11" width="148.65" height="161.13" transform="translate(-272.34 1139.85) rotate(-45)"/><rect class="cls-11" x="887.6" y="1093.06" width="163.49" height="161.13" transform="translate(2484.66 1318.07) rotate(135)"/><rect class="cls-12" x="891.94" y="1653.66" width="162.63" height="161.13" transform="translate(2887.72 2272.3) rotate(135)"/><rect class="cls-13" x="887.24" y="1931.05" width="171.65" height="166.98" transform="translate(236.63 4127.1) rotate(-135)"/><rect class="cls-14" x="1154.71" y="1086.21" width="170.09" height="149.26" transform="translate(2937.23 1105.03) rotate(135)"/><rect class="cls-15" x="1154.71" y="1393.09" width="170.09" height="149.26" transform="translate(1400.95 -446.76) rotate(45)"/></svg>